<?xml version="1.0" encoding="UTF-8" standalone="no"?>
<!DOCTYPE svg PUBLIC "-//W3C//DTD SVG 1.1//EN" "http://www.w3.org/Graphics/SVG/1.1/DTD/svg11.dtd">
<svg width="100%" height="100%" viewBox="0 0 1200 300" version="1.1" xmlns="http://www.w3.org/2000/svg" xmlnsXlink="http://www.w3.org/1999/xlink" xmlSpace="preserve" style="fill-rule:evenodd;clip-rule:evenodd;stroke-linejoin:round;stroke-miterlimit:2;">
    <g transform="matrix(1,0,0,1,-119.058,-130.688)">
        <g transform="matrix(6.12622,0,0,1,-205.213,-1.13687e-13)">
            <rect x="52.932" y="130.688" width="195.88" height="300" style="fill:white;fill-opacity:0;"/>
        </g>
        <g transform="matrix(0.911173,0,0,0.832372,10.5755,-218.735)">
            <path d="M1090.37,453.18C1099.47,452.815 1108.7,452.628 1118.02,452.628C1293.54,452.628 1436.04,518.663 1436.04,600C1436.04,681.337 1293.54,747.372 1118.02,747.372C1108.7,747.372 1099.47,747.185 1090.37,746.82L1090.37,747.372C1090.37,747.372 494.891,747.372 236.436,747.372C171.61,747.372 119.058,694.82 119.058,629.993C119.058,610.248 119.058,589.752 119.058,570.007C119.058,505.18 171.61,452.628 236.436,452.628L1090.37,452.628L1090.37,453.18Z" style="fill:rgb(235,235,235);"/>
            <path d="M1090.37,743.172L1090.37,747.372C1090.37,747.372 494.891,747.372 236.436,747.372C171.61,747.372 119.058,694.82 119.058,629.993L119.058,570.007C119.058,505.18 171.61,452.628 236.436,452.628L1090.37,452.628L1090.37,453.18C1099.47,452.815 1108.7,452.628 1118.02,452.628C1293.54,452.628 1436.04,518.663 1436.04,600C1436.04,681.337 1293.54,747.372 1118.02,747.372C1109.49,747.372 1101.03,747.215 1092.68,746.907C1093.45,745.802 1094.14,745.247 1094.2,746.611C1094.11,744.452 1092.51,742.703 1090.51,742.623C1099.57,742.986 1108.75,743.172 1118.02,743.172C1222.54,743.172 1315.28,719.685 1372.73,683.375C1409.86,659.907 1432.2,631.303 1432.2,600C1432.2,568.697 1409.86,540.093 1372.73,516.625C1315.28,480.315 1222.54,456.828 1118.02,456.828C1108.75,456.828 1099.57,457.014 1090.51,457.377C1090.46,457.379 1090.42,457.38 1090.37,457.38C1090.37,457.38 1089.54,457.299 1088.66,456.828L236.436,456.828C173.82,456.829 122.895,507.391 122.895,570.007C122.895,589.752 122.895,610.248 122.895,629.993C122.895,692.609 173.82,743.171 236.436,743.172C494.891,743.172 1090.37,743.172 1090.37,743.172Z" style="fill:rgb(84,84,84);"/>
        </g>
        <g transform="matrix(0.916172,0,0,0.794562,6.36142,-196.049)">
            <path d="M1096.86,474.144C1131.67,474.144 1159.93,530.538 1159.93,600C1159.93,669.462 1131.67,725.856 1096.86,725.856C1096.86,725.856 496.875,725.856 252.262,725.856C225.219,725.856 199.283,715.113 180.161,695.99C161.038,676.868 150.295,650.932 150.295,623.889C150.295,608.136 150.295,591.864 150.295,576.111C150.295,549.068 161.038,523.132 180.161,504.01C199.283,484.887 225.219,474.144 252.262,474.144L1096.86,474.144Z" style="fill:white;"/>
            <path d="M1096.86,474.144L1096.86,471.627C1111.4,471.627 1124.91,480.931 1135.81,496.883C1151.71,520.149 1162.11,557.674 1162.11,600C1162.11,642.326 1151.71,679.851 1135.81,703.117C1124.91,719.069 1111.4,728.373 1096.86,728.373C1096.86,728.373 496.875,728.373 252.262,728.373C224.68,728.373 198.234,717.395 178.731,697.892C159.108,678.269 148.112,651.639 148.112,623.889C148.112,608.136 148.112,591.864 148.112,576.111C148.112,548.361 159.108,521.731 178.731,502.108C198.234,482.605 224.68,471.627 252.262,471.627L1096.86,471.627L1096.86,474.144L252.262,474.144C225.219,474.144 199.283,484.887 180.161,504.01C161.038,523.132 150.295,549.068 150.295,576.111C150.295,591.864 150.295,608.136 150.295,623.889C150.295,650.932 161.038,676.868 180.161,695.99C199.283,715.113 225.219,725.856 252.262,725.856C496.875,725.856 1096.86,725.856 1096.86,725.856C1131.67,725.856 1159.93,669.462 1159.93,600C1159.93,530.538 1131.67,474.144 1096.86,474.144Z" style="fill:rgb(84,84,84);"/>
        </g>
    </g>
</svg>
