<!-- Generated by IcoMoon.io -->
<svg version="1.1" xmlns="http://www.w3.org/2000/svg" viewBox="0 0 512 448">
<title></title>
<g id="icomoon-ignore">
</g>
<path d="M452.75 388.75c6.25-6.25 16.25-6.25 22.5 0l32 32-22.5 22.5-20.75-20.75-20.75 20.75c-3 3.25-7.25 4.75-11.25 4.75s-8.25-1.5-11.25-4.75l-20.75-20.75-20.75 20.75c-6.25 6.25-16.25 6.25-22.5 0l-20.75-20.75-20.75 20.75c-6.25 6.25-16.25 6.25-22.5 0l-20.75-20.75-20.75 20.75c-6.25 6.25-16.25 6.25-22.5 0l-20.75-20.75-20.75 20.75c-6.25 6.25-16.25 6.25-22.5 0l-20.75-20.75-20.75 20.75c-6.25 6.25-16.25 6.25-22.5 0l-20.75-20.75-20.75 20.75c-6.25 6.25-16.25 6.25-22.5 0l-32-32 22.5-22.5 20.75 20.75 20.75-20.75c6.25-6.25 16.25-6.25 22.5 0l20.75 20.75 20.75-20.75c6.25-6.25 16.25-6.25 22.5 0l20.75 20.75 20.75-20.75c6.25-6.25 16.25-6.25 22.5 0l20.75 20.75 20.75-20.75c6.25-6.25 16.25-6.25 22.5 0l20.75 20.75 20.75-20.75c6.25-6.25 16.25-6.25 22.5 0l20.75 20.75 20.75-20.75c6.25-6.25 16.25-6.25 22.5 0l20.75 20.75zM59.25 379.25c-6.25 6.25-16.25 6.25-22.5 0l-32-32 22.5-22.5 20.75 20.5 20.75-20.5c6.25-6.25 16.25-6.25 22.5 0l20.75 20.5 16-16v-73.25l-52.5-78.5c-5.75-8.75-1.75-20.75 8.25-24.25l44.25-14.5v-74.75h32v-32h64v-32h64v32h64v32h32v74.75l44.25 14.5c10 3.5 14 15.5 8.25 24.25l-52.5 78.5v73.25l4.75-4.5c6.25-6.25 16.25-6.25 22.5 0l20.75 20.5 20.75-20.5c6.25-6.25 16.25-6.25 22.5 0l32 32-22.5 22.5-20.75-20.75-20.75 20.75c-3 3.25-7.25 4.75-11.25 4.75s-8.25-1.5-11.25-4.75l-20.75-20.75-20.75 20.75c-6.25 6.25-16.25 6.25-22.5 0l-20.75-20.75-20.75 20.75c-6.25 6.25-16.25 6.25-22.5 0l-20.75-20.75-20.75 20.75c-6.25 6.25-16.25 6.25-22.5 0l-20.75-20.75-20.75 20.75c-6.25 6.25-16.25 6.25-22.5 0l-20.75-20.75-20.75 20.75c-6.25 6.25-16.25 6.25-22.5 0l-20.75-20.75zM160 96v32l96-32 96 32v-32h-32v-32h-128v32h-32z"></path>
</svg>
